<svg width="24" height="24" viewBox="0 0 24 24" fill="none" xmlns="http://www.w3.org/2000/svg">
<path d="M8 17C8.55228 17 9 17.4477 9 18C9 18.5523 8.55228 19 8 19H6C5.44772 19 5 18.5523 5 18C5 17.4477 5.44772 17 6 17H8Z" fill="#555555"/>
<path d="M13 17C13.5523 17 14 17.4477 14 18C14 18.5523 13.5523 19 13 19H11C10.4477 19 10 18.5523 10 18C10 17.4477 10.4477 17 11 17H13Z" fill="#555555"/>
<path d="M18 17C18.5523 17 19 17.4477 19 18C19 18.5523 18.5523 19 18 19H16C15.4477 19 15 18.5523 15 18C15 17.4477 15.4477 17 16 17H18Z" fill="#555555"/>
<path d="M8 14C8.55228 14 9 14.4477 9 15C9 15.5523 8.55228 16 8 16H6C5.44772 16 5 15.5523 5 15C5 14.4477 5.44772 14 6 14H8Z" fill="#555555"/>
<path d="M13 14C13.5523 14 14 14.4477 14 15C14 15.5523 13.5523 16 13 16H11C10.4477 16 10 15.5523 10 15C10 14.4477 10.4477 14 11 14H13Z" fill="#555555"/>
<path d="M18 14C18.5523 14 19 14.4477 19 15C19 15.5523 18.5523 16 18 16H16C15.4477 16 15 15.5523 15 15C15 14.4477 15.4477 14 16 14H18Z" fill="#555555"/>
<path d="M8 11C8.55228 11 9 11.4477 9 12C9 12.5523 8.55228 13 8 13H6C5.44772 13 5 12.5523 5 12C5 11.4477 5.44772 11 6 11H8Z" fill="#555555"/>
<path d="M13 11C13.5523 11 14 11.4477 14 12C14 12.5523 13.5523 13 13 13H11C10.4477 13 10 12.5523 10 12C10 11.4477 10.4477 11 11 11H13Z" fill="#555555"/>
<path d="M18 11C18.5523 11 19 11.4477 19 12C19 12.5523 18.5523 13 18 13H16C15.4477 13 15 12.5523 15 12C15 11.4477 15.4477 11 16 11H18Z" fill="#555555"/>
<path fill-rule="evenodd" clip-rule="evenodd" d="M17 2C17.5523 2 18 2.44772 18 3V4H20L20.2041 4.01074C21.2128 4.113 22 4.96435 22 6V20C22 21.0357 21.2128 21.887 20.2041 21.9893L20 22H4C2.96435 22 2.113 21.2128 2.01074 20.2041L2 20V6C2 4.89543 2.89543 4 4 4H6V3C6 2.44772 6.44772 2 7 2C7.55228 2 8 2.44772 8 3V4H16V3C16 2.44772 16.4477 2 17 2ZM4 20H20V10H4V20ZM4 8H20V6H4V8Z" fill="#555555"/>
</svg>
