<svg width="24" height="24" viewBox="0 0 24 24" fill="none" xmlns="http://www.w3.org/2000/svg">
<path d="M8 17C8.73993 17 9.38454 17.4027 9.73047 18H20C20.5523 18 21 18.4477 21 19C21 19.5523 20.5523 20 20 20H9.73047C9.38454 20.5973 8.73993 21 8 21C7.26007 21 6.61546 20.5973 6.26953 20H4C3.44772 20 3 19.5523 3 19C3 18.4477 3.44772 18 4 18H6.26953C6.61546 17.4027 7.26007 17 8 17Z" fill="#555555"/>
<path d="M17 10C17.7399 10 18.3845 10.4027 18.7305 11H20C20.5523 11 21 11.4477 21 12C21 12.5523 20.5523 13 20 13H18.7305C18.3845 13.5973 17.7399 14 17 14C16.2601 14 15.6155 13.5973 15.2695 13H4C3.44772 13 3 12.5523 3 12C3 11.4477 3.44772 11 4 11H15.2695C15.6155 10.4027 16.2601 10 17 10Z" fill="#555555"/>
<path d="M8 3C8.73993 3 9.38454 3.40267 9.73047 4H20C20.5523 4 21 4.44772 21 5C21 5.55228 20.5523 6 20 6H9.73047C9.38454 6.59733 8.73993 7 8 7C7.26007 7 6.61546 6.59733 6.26953 6H4C3.44772 6 3 5.55228 3 5C3 4.44772 3.44772 4 4 4H6.26953C6.61546 3.40267 7.26007 3 8 3Z" fill="#555555"/>
</svg>
