<svg width="32" height="32" viewBox="0 0 32 32" fill="none" xmlns="http://www.w3.org/2000/svg">
<mask id="path-1-inside-1_220_194" fill="white">
<path fill-rule="evenodd" clip-rule="evenodd" d="M15.9999 11C18.7614 11 20.9999 13.2386 20.9999 16C20.9999 18.7615 18.7614 21 15.9999 21C13.2385 21 10.9999 18.7615 10.9999 16C10.9999 13.2386 13.2385 11 15.9999 11ZM15.9999 13C14.3431 13 12.9999 14.3432 12.9999 16C12.9999 17.6568 14.3431 19 15.9999 19C17.6567 19 18.9999 17.6568 18.9999 16C18.9999 14.3432 17.6567 13 15.9999 13Z"/>
<path fill-rule="evenodd" clip-rule="evenodd" d="M16.0335 1.66669C16.6262 1.66667 17.1209 1.66668 17.5271 1.69438C17.9499 1.72324 18.3493 1.78542 18.7365 1.94579C19.6349 2.31794 20.3487 3.03173 20.7208 3.93016C20.9146 4.39787 20.967 4.8908 20.987 5.42657C21.0031 5.85731 21.2206 6.21671 21.5414 6.40192C21.8622 6.58715 22.2822 6.59573 22.6633 6.3943C23.1373 6.14378 23.5903 5.94277 24.0922 5.87669C25.0564 5.74975 26.0315 6.01103 26.803 6.60302C27.1355 6.85814 27.389 7.17289 27.6254 7.52462C27.8524 7.8625 28.0998 8.29103 28.3962 8.80427L28.4298 8.86262C28.7262 9.37579 28.9735 9.80418 29.1526 10.1697C29.339 10.5503 29.4847 10.9273 29.5395 11.3428C29.6664 12.3069 29.4051 13.282 28.8131 14.0535C28.505 14.4552 28.1043 14.7471 27.6502 15.0323C27.2852 15.2616 27.0827 15.6295 27.0827 15.9999C27.0827 16.3704 27.2853 16.7384 27.6503 16.9677C28.1042 17.2529 28.5049 17.5448 28.813 17.9464C29.405 18.7179 29.6663 19.6929 29.5394 20.6572C29.4846 21.0727 29.3388 21.4496 29.1524 21.8301C28.9734 22.1957 28.7259 22.6243 28.4296 23.1375L28.3959 23.1959C28.0997 23.7091 27.8523 24.1375 27.6253 24.4754C27.3889 24.8271 27.1354 25.1418 26.8028 25.397C26.0314 25.9889 25.0563 26.2501 24.0922 26.1232C23.5902 26.0572 23.1371 25.8561 22.6631 25.6056C22.282 25.4043 21.862 25.4128 21.5412 25.598C21.2204 25.7833 21.0031 26.1427 20.987 26.5733C20.967 27.1092 20.9146 27.6022 20.7208 28.0699C20.3487 28.9683 19.6349 29.6821 18.7365 30.0543C18.3493 30.2147 17.9499 30.2768 17.5271 30.3056C17.1209 30.3333 16.6262 30.3333 16.0335 30.3333H15.9662C15.3737 30.3333 14.8788 30.3333 14.4727 30.3056C14.0499 30.2768 13.6506 30.2147 13.2634 30.0543C12.365 29.6821 11.6512 28.9683 11.279 28.0699C11.0853 27.6022 11.0328 27.1092 11.0128 26.5735C10.9966 26.1427 10.7793 25.7833 10.4585 25.5981C10.1376 25.4128 9.71769 25.4043 9.33658 25.6057C8.86259 25.8563 8.40948 26.0572 7.90756 26.1233C6.94343 26.2503 5.96832 25.989 5.19682 25.397C4.86434 25.1419 4.61081 24.8271 4.37444 24.4754C4.14736 24.1375 3.9 23.7091 3.60369 23.1959L3.57002 23.1375C3.27372 22.6243 3.02637 22.1959 2.84729 21.8303C2.66087 21.4497 2.51504 21.0727 2.46033 20.6572C2.33342 19.6931 2.59466 18.718 3.18666 17.9465C3.49485 17.5449 3.8955 17.2529 4.34947 16.9677C4.71447 16.7384 4.91704 16.3704 4.91705 16C4.91708 15.6295 4.71451 15.2615 4.34947 15.0322C3.89555 14.747 3.49494 14.455 3.18678 14.0535C2.5948 13.2819 2.33352 12.3068 2.46045 11.3427C2.51516 10.9272 2.66099 10.5502 2.8474 10.1697C3.02648 9.80407 3.27386 9.37564 3.57018 8.86243L3.60385 8.80411C3.90015 8.29089 4.14747 7.86242 4.37455 7.52454C4.61093 7.17281 4.86449 6.85806 5.19697 6.60294C5.96848 6.01094 6.94355 5.74964 7.90768 5.87657C8.40962 5.94265 8.86275 6.14372 9.33678 6.39427C9.71783 6.59566 10.1377 6.58708 10.4585 6.40188C10.7793 6.21668 10.9966 5.85732 11.0128 5.42661C11.0328 4.89083 11.0853 4.39789 11.279 3.93016C11.6512 3.03173 12.365 2.31794 13.2634 1.94579C13.6506 1.78542 14.0499 1.72324 14.4727 1.69438C14.8788 1.66668 15.3737 1.66667 15.9662 1.66669H16.0335ZM15.9999 3.66669C15.365 3.66669 14.9388 3.66723 14.6088 3.68973C14.2879 3.71164 14.1317 3.75091 14.0287 3.79352C13.6205 3.96268 13.2959 4.28717 13.1268 4.69555C13.0734 4.82438 13.0292 5.02521 13.0114 5.50138C12.9719 6.55784 12.4265 7.57506 11.4585 8.13395C10.4905 8.69284 9.33687 8.65648 8.40221 8.16247C7.98092 7.93979 7.78488 7.87766 7.64662 7.85946C7.20839 7.80177 6.76516 7.92053 6.41447 8.18962C6.32614 8.25739 6.21397 8.37311 6.03451 8.64012C5.85003 8.91462 5.63652 9.28339 5.31904 9.83325C5.00158 10.3831 4.78898 10.7524 4.6435 11.0494C4.50198 11.3383 4.45787 11.4934 4.44334 11.6038C4.38565 12.042 4.50442 12.4852 4.7735 12.8359C4.85838 12.9465 5.01019 13.0852 5.41354 13.3387C6.30878 13.9012 6.91711 14.8821 6.91705 16.0001C6.917 17.1179 6.30867 18.0988 5.4135 18.6612C5.01007 18.9147 4.85826 19.0535 4.77338 19.164C4.50429 19.5147 4.38553 19.9579 4.44322 20.3961C4.45776 20.5065 4.50186 20.6616 4.64338 20.9506C4.78886 21.2475 5.00145 21.6168 5.31893 22.1667C5.63639 22.7165 5.84993 23.0853 6.0344 23.3597C6.21385 23.6268 6.32601 23.7425 6.41436 23.8103C6.76503 24.0793 7.20826 24.1981 7.64651 24.1404C7.78474 24.1223 7.98078 24.0601 8.40201 23.8375C9.33673 23.3435 10.4904 23.3071 11.4585 23.866C12.4265 24.425 12.9719 25.4423 13.0114 26.4987C13.0292 26.9748 13.0734 27.1756 13.1268 27.3045C13.2959 27.7128 13.6205 28.0373 14.0287 28.2065C14.1317 28.2491 14.2879 28.2884 14.6088 28.3103C14.9388 28.3328 15.365 28.3333 15.9999 28.3333C16.6348 28.3333 17.061 28.3328 17.3908 28.3103C17.7119 28.2884 17.8682 28.2491 17.971 28.2065C18.3794 28.0373 18.7039 27.7128 18.873 27.3045C18.9265 27.1756 18.9706 26.9748 18.9885 26.4987C19.0279 25.4421 19.5733 24.425 20.5411 23.866C21.5092 23.3071 22.663 23.3433 23.5976 23.8375C24.0188 24.06 24.215 24.1221 24.3531 24.1404C24.7914 24.198 25.2346 24.0793 25.5853 23.8101C25.6737 23.7424 25.7858 23.6267 25.9653 23.3597C26.1498 23.0852 26.3633 22.7164 26.6807 22.1665C26.9982 21.6167 27.2108 21.2473 27.3563 20.9504C27.4978 20.6615 27.5419 20.5065 27.5565 20.3961C27.6142 19.9579 27.4954 19.5147 27.2263 19.164C27.1414 19.0533 26.9896 18.9147 26.5862 18.6612C25.691 18.0987 25.0827 17.1177 25.0827 15.9999C25.0829 14.8822 25.6911 13.9013 26.5862 13.3388C26.9898 13.0853 27.1415 12.9466 27.2265 12.836C27.4955 12.4853 27.6143 12.0421 27.5566 11.6038C27.5421 11.4934 27.4979 11.3384 27.3565 11.0495C27.211 10.7525 26.9983 10.3832 26.6808 9.83333C26.3634 9.28347 26.1499 8.91469 25.9654 8.6402C25.7859 8.37319 25.6738 8.25752 25.5854 8.18973C25.2347 7.92066 24.7915 7.80189 24.3533 7.85958C24.2151 7.87778 24.019 7.93987 23.5978 8.16251C22.6631 8.65653 21.5094 8.69292 20.5414 8.13399C19.5733 7.57507 19.0279 6.5578 18.9885 5.5013C18.9706 5.02518 18.9265 4.82437 18.873 4.69555C18.7039 4.28717 18.3794 3.96268 17.971 3.79352C17.8682 3.75091 17.7119 3.71164 17.3908 3.68973C17.061 3.66723 16.6348 3.66669 15.9999 3.66669Z"/>
</mask>
<path fill-rule="evenodd" clip-rule="evenodd" d="M15.9999 11C18.7614 11 20.9999 13.2386 20.9999 16C20.9999 18.7615 18.7614 21 15.9999 21C13.2385 21 10.9999 18.7615 10.9999 16C10.9999 13.2386 13.2385 11 15.9999 11ZM15.9999 13C14.3431 13 12.9999 14.3432 12.9999 16C12.9999 17.6568 14.3431 19 15.9999 19C17.6567 19 18.9999 17.6568 18.9999 16C18.9999 14.3432 17.6567 13 15.9999 13Z" fill="#1C274C"/>
<path fill-rule="evenodd" clip-rule="evenodd" d="M16.0335 1.66669C16.6262 1.66667 17.1209 1.66668 17.5271 1.69438C17.9499 1.72324 18.3493 1.78542 18.7365 1.94579C19.6349 2.31794 20.3487 3.03173 20.7208 3.93016C20.9146 4.39787 20.967 4.8908 20.987 5.42657C21.0031 5.85731 21.2206 6.21671 21.5414 6.40192C21.8622 6.58715 22.2822 6.59573 22.6633 6.3943C23.1373 6.14378 23.5903 5.94277 24.0922 5.87669C25.0564 5.74975 26.0315 6.01103 26.803 6.60302C27.1355 6.85814 27.389 7.17289 27.6254 7.52462C27.8524 7.8625 28.0998 8.29103 28.3962 8.80427L28.4298 8.86262C28.7262 9.37579 28.9735 9.80418 29.1526 10.1697C29.339 10.5503 29.4847 10.9273 29.5395 11.3428C29.6664 12.3069 29.4051 13.282 28.8131 14.0535C28.505 14.4552 28.1043 14.7471 27.6502 15.0323C27.2852 15.2616 27.0827 15.6295 27.0827 15.9999C27.0827 16.3704 27.2853 16.7384 27.6503 16.9677C28.1042 17.2529 28.5049 17.5448 28.813 17.9464C29.405 18.7179 29.6663 19.6929 29.5394 20.6572C29.4846 21.0727 29.3388 21.4496 29.1524 21.8301C28.9734 22.1957 28.7259 22.6243 28.4296 23.1375L28.3959 23.1959C28.0997 23.7091 27.8523 24.1375 27.6253 24.4754C27.3889 24.8271 27.1354 25.1418 26.8028 25.397C26.0314 25.9889 25.0563 26.2501 24.0922 26.1232C23.5902 26.0572 23.1371 25.8561 22.6631 25.6056C22.282 25.4043 21.862 25.4128 21.5412 25.598C21.2204 25.7833 21.0031 26.1427 20.987 26.5733C20.967 27.1092 20.9146 27.6022 20.7208 28.0699C20.3487 28.9683 19.6349 29.6821 18.7365 30.0543C18.3493 30.2147 17.9499 30.2768 17.5271 30.3056C17.1209 30.3333 16.6262 30.3333 16.0335 30.3333H15.9662C15.3737 30.3333 14.8788 30.3333 14.4727 30.3056C14.0499 30.2768 13.6506 30.2147 13.2634 30.0543C12.365 29.6821 11.6512 28.9683 11.279 28.0699C11.0853 27.6022 11.0328 27.1092 11.0128 26.5735C10.9966 26.1427 10.7793 25.7833 10.4585 25.5981C10.1376 25.4128 9.71769 25.4043 9.33658 25.6057C8.86259 25.8563 8.40948 26.0572 7.90756 26.1233C6.94343 26.2503 5.96832 25.989 5.19682 25.397C4.86434 25.1419 4.61081 24.8271 4.37444 24.4754C4.14736 24.1375 3.9 23.7091 3.60369 23.1959L3.57002 23.1375C3.27372 22.6243 3.02637 22.1959 2.84729 21.8303C2.66087 21.4497 2.51504 21.0727 2.46033 20.6572C2.33342 19.6931 2.59466 18.718 3.18666 17.9465C3.49485 17.5449 3.8955 17.2529 4.34947 16.9677C4.71447 16.7384 4.91704 16.3704 4.91705 16C4.91708 15.6295 4.71451 15.2615 4.34947 15.0322C3.89555 14.747 3.49494 14.455 3.18678 14.0535C2.5948 13.2819 2.33352 12.3068 2.46045 11.3427C2.51516 10.9272 2.66099 10.5502 2.8474 10.1697C3.02648 9.80407 3.27386 9.37564 3.57018 8.86243L3.60385 8.80411C3.90015 8.29089 4.14747 7.86242 4.37455 7.52454C4.61093 7.17281 4.86449 6.85806 5.19697 6.60294C5.96848 6.01094 6.94355 5.74964 7.90768 5.87657C8.40962 5.94265 8.86275 6.14372 9.33678 6.39427C9.71783 6.59566 10.1377 6.58708 10.4585 6.40188C10.7793 6.21668 10.9966 5.85732 11.0128 5.42661C11.0328 4.89083 11.0853 4.39789 11.279 3.93016C11.6512 3.03173 12.365 2.31794 13.2634 1.94579C13.6506 1.78542 14.0499 1.72324 14.4727 1.69438C14.8788 1.66668 15.3737 1.66667 15.9662 1.66669H16.0335ZM15.9999 3.66669C15.365 3.66669 14.9388 3.66723 14.6088 3.68973C14.2879 3.71164 14.1317 3.75091 14.0287 3.79352C13.6205 3.96268 13.2959 4.28717 13.1268 4.69555C13.0734 4.82438 13.0292 5.02521 13.0114 5.50138C12.9719 6.55784 12.4265 7.57506 11.4585 8.13395C10.4905 8.69284 9.33687 8.65648 8.40221 8.16247C7.98092 7.93979 7.78488 7.87766 7.64662 7.85946C7.20839 7.80177 6.76516 7.92053 6.41447 8.18962C6.32614 8.25739 6.21397 8.37311 6.03451 8.64012C5.85003 8.91462 5.63652 9.28339 5.31904 9.83325C5.00158 10.3831 4.78898 10.7524 4.6435 11.0494C4.50198 11.3383 4.45787 11.4934 4.44334 11.6038C4.38565 12.042 4.50442 12.4852 4.7735 12.8359C4.85838 12.9465 5.01019 13.0852 5.41354 13.3387C6.30878 13.9012 6.91711 14.8821 6.91705 16.0001C6.917 17.1179 6.30867 18.0988 5.4135 18.6612C5.01007 18.9147 4.85826 19.0535 4.77338 19.164C4.50429 19.5147 4.38553 19.9579 4.44322 20.3961C4.45776 20.5065 4.50186 20.6616 4.64338 20.9506C4.78886 21.2475 5.00145 21.6168 5.31893 22.1667C5.63639 22.7165 5.84993 23.0853 6.0344 23.3597C6.21385 23.6268 6.32601 23.7425 6.41436 23.8103C6.76503 24.0793 7.20826 24.1981 7.64651 24.1404C7.78474 24.1223 7.98078 24.0601 8.40201 23.8375C9.33673 23.3435 10.4904 23.3071 11.4585 23.866C12.4265 24.425 12.9719 25.4423 13.0114 26.4987C13.0292 26.9748 13.0734 27.1756 13.1268 27.3045C13.2959 27.7128 13.6205 28.0373 14.0287 28.2065C14.1317 28.2491 14.2879 28.2884 14.6088 28.3103C14.9388 28.3328 15.365 28.3333 15.9999 28.3333C16.6348 28.3333 17.061 28.3328 17.3908 28.3103C17.7119 28.2884 17.8682 28.2491 17.971 28.2065C18.3794 28.0373 18.7039 27.7128 18.873 27.3045C18.9265 27.1756 18.9706 26.9748 18.9885 26.4987C19.0279 25.4421 19.5733 24.425 20.5411 23.866C21.5092 23.3071 22.663 23.3433 23.5976 23.8375C24.0188 24.06 24.215 24.1221 24.3531 24.1404C24.7914 24.198 25.2346 24.0793 25.5853 23.8101C25.6737 23.7424 25.7858 23.6267 25.9653 23.3597C26.1498 23.0852 26.3633 22.7164 26.6807 22.1665C26.9982 21.6167 27.2108 21.2473 27.3563 20.9504C27.4978 20.6615 27.5419 20.5065 27.5565 20.3961C27.6142 19.9579 27.4954 19.5147 27.2263 19.164C27.1414 19.0533 26.9896 18.9147 26.5862 18.6612C25.691 18.0987 25.0827 17.1177 25.0827 15.9999C25.0829 14.8822 25.6911 13.9013 26.5862 13.3388C26.9898 13.0853 27.1415 12.9466 27.2265 12.836C27.4955 12.4853 27.6143 12.0421 27.5566 11.6038C27.5421 11.4934 27.4979 11.3384 27.3565 11.0495C27.211 10.7525 26.9983 10.3832 26.6808 9.83333C26.3634 9.28347 26.1499 8.91469 25.9654 8.6402C25.7859 8.37319 25.6738 8.25752 25.5854 8.18973C25.2347 7.92066 24.7915 7.80189 24.3533 7.85958C24.2151 7.87778 24.019 7.93987 23.5978 8.16251C22.6631 8.65653 21.5094 8.69292 20.5414 8.13399C19.5733 7.57507 19.0279 6.5578 18.9885 5.5013C18.9706 5.02518 18.9265 4.82437 18.873 4.69555C18.7039 4.28717 18.3794 3.96268 17.971 3.79352C17.8682 3.75091 17.7119 3.71164 17.3908 3.68973C17.061 3.66723 16.6348 3.66669 15.9999 3.66669Z" fill="#1C274C"/>
<path fill-rule="evenodd" clip-rule="evenodd" d="M15.9999 11C18.7614 11 20.9999 13.2386 20.9999 16C20.9999 18.7615 18.7614 21 15.9999 21C13.2385 21 10.9999 18.7615 10.9999 16C10.9999 13.2386 13.2385 11 15.9999 11ZM15.9999 13C14.3431 13 12.9999 14.3432 12.9999 16C12.9999 17.6568 14.3431 19 15.9999 19C17.6567 19 18.9999 17.6568 18.9999 16C18.9999 14.3432 17.6567 13 15.9999 13Z" stroke="#555555" stroke-width="4" mask="url(#path-1-inside-1_220_194)"/>
<path fill-rule="evenodd" clip-rule="evenodd" d="M16.0335 1.66669C16.6262 1.66667 17.1209 1.66668 17.5271 1.69438C17.9499 1.72324 18.3493 1.78542 18.7365 1.94579C19.6349 2.31794 20.3487 3.03173 20.7208 3.93016C20.9146 4.39787 20.967 4.8908 20.987 5.42657C21.0031 5.85731 21.2206 6.21671 21.5414 6.40192C21.8622 6.58715 22.2822 6.59573 22.6633 6.3943C23.1373 6.14378 23.5903 5.94277 24.0922 5.87669C25.0564 5.74975 26.0315 6.01103 26.803 6.60302C27.1355 6.85814 27.389 7.17289 27.6254 7.52462C27.8524 7.8625 28.0998 8.29103 28.3962 8.80427L28.4298 8.86262C28.7262 9.37579 28.9735 9.80418 29.1526 10.1697C29.339 10.5503 29.4847 10.9273 29.5395 11.3428C29.6664 12.3069 29.4051 13.282 28.8131 14.0535C28.505 14.4552 28.1043 14.7471 27.6502 15.0323C27.2852 15.2616 27.0827 15.6295 27.0827 15.9999C27.0827 16.3704 27.2853 16.7384 27.6503 16.9677C28.1042 17.2529 28.5049 17.5448 28.813 17.9464C29.405 18.7179 29.6663 19.6929 29.5394 20.6572C29.4846 21.0727 29.3388 21.4496 29.1524 21.8301C28.9734 22.1957 28.7259 22.6243 28.4296 23.1375L28.3959 23.1959C28.0997 23.7091 27.8523 24.1375 27.6253 24.4754C27.3889 24.8271 27.1354 25.1418 26.8028 25.397C26.0314 25.9889 25.0563 26.2501 24.0922 26.1232C23.5902 26.0572 23.1371 25.8561 22.6631 25.6056C22.282 25.4043 21.862 25.4128 21.5412 25.598C21.2204 25.7833 21.0031 26.1427 20.987 26.5733C20.967 27.1092 20.9146 27.6022 20.7208 28.0699C20.3487 28.9683 19.6349 29.6821 18.7365 30.0543C18.3493 30.2147 17.9499 30.2768 17.5271 30.3056C17.1209 30.3333 16.6262 30.3333 16.0335 30.3333H15.9662C15.3737 30.3333 14.8788 30.3333 14.4727 30.3056C14.0499 30.2768 13.6506 30.2147 13.2634 30.0543C12.365 29.6821 11.6512 28.9683 11.279 28.0699C11.0853 27.6022 11.0328 27.1092 11.0128 26.5735C10.9966 26.1427 10.7793 25.7833 10.4585 25.5981C10.1376 25.4128 9.71769 25.4043 9.33658 25.6057C8.86259 25.8563 8.40948 26.0572 7.90756 26.1233C6.94343 26.2503 5.96832 25.989 5.19682 25.397C4.86434 25.1419 4.61081 24.8271 4.37444 24.4754C4.14736 24.1375 3.9 23.7091 3.60369 23.1959L3.57002 23.1375C3.27372 22.6243 3.02637 22.1959 2.84729 21.8303C2.66087 21.4497 2.51504 21.0727 2.46033 20.6572C2.33342 19.6931 2.59466 18.718 3.18666 17.9465C3.49485 17.5449 3.8955 17.2529 4.34947 16.9677C4.71447 16.7384 4.91704 16.3704 4.91705 16C4.91708 15.6295 4.71451 15.2615 4.34947 15.0322C3.89555 14.747 3.49494 14.455 3.18678 14.0535C2.5948 13.2819 2.33352 12.3068 2.46045 11.3427C2.51516 10.9272 2.66099 10.5502 2.8474 10.1697C3.02648 9.80407 3.27386 9.37564 3.57018 8.86243L3.60385 8.80411C3.90015 8.29089 4.14747 7.86242 4.37455 7.52454C4.61093 7.17281 4.86449 6.85806 5.19697 6.60294C5.96848 6.01094 6.94355 5.74964 7.90768 5.87657C8.40962 5.94265 8.86275 6.14372 9.33678 6.39427C9.71783 6.59566 10.1377 6.58708 10.4585 6.40188C10.7793 6.21668 10.9966 5.85732 11.0128 5.42661C11.0328 4.89083 11.0853 4.39789 11.279 3.93016C11.6512 3.03173 12.365 2.31794 13.2634 1.94579C13.6506 1.78542 14.0499 1.72324 14.4727 1.69438C14.8788 1.66668 15.3737 1.66667 15.9662 1.66669H16.0335ZM15.9999 3.66669C15.365 3.66669 14.9388 3.66723 14.6088 3.68973C14.2879 3.71164 14.1317 3.75091 14.0287 3.79352C13.6205 3.96268 13.2959 4.28717 13.1268 4.69555C13.0734 4.82438 13.0292 5.02521 13.0114 5.50138C12.9719 6.55784 12.4265 7.57506 11.4585 8.13395C10.4905 8.69284 9.33687 8.65648 8.40221 8.16247C7.98092 7.93979 7.78488 7.87766 7.64662 7.85946C7.20839 7.80177 6.76516 7.92053 6.41447 8.18962C6.32614 8.25739 6.21397 8.37311 6.03451 8.64012C5.85003 8.91462 5.63652 9.28339 5.31904 9.83325C5.00158 10.3831 4.78898 10.7524 4.6435 11.0494C4.50198 11.3383 4.45787 11.4934 4.44334 11.6038C4.38565 12.042 4.50442 12.4852 4.7735 12.8359C4.85838 12.9465 5.01019 13.0852 5.41354 13.3387C6.30878 13.9012 6.91711 14.8821 6.91705 16.0001C6.917 17.1179 6.30867 18.0988 5.4135 18.6612C5.01007 18.9147 4.85826 19.0535 4.77338 19.164C4.50429 19.5147 4.38553 19.9579 4.44322 20.3961C4.45776 20.5065 4.50186 20.6616 4.64338 20.9506C4.78886 21.2475 5.00145 21.6168 5.31893 22.1667C5.63639 22.7165 5.84993 23.0853 6.0344 23.3597C6.21385 23.6268 6.32601 23.7425 6.41436 23.8103C6.76503 24.0793 7.20826 24.1981 7.64651 24.1404C7.78474 24.1223 7.98078 24.0601 8.40201 23.8375C9.33673 23.3435 10.4904 23.3071 11.4585 23.866C12.4265 24.425 12.9719 25.4423 13.0114 26.4987C13.0292 26.9748 13.0734 27.1756 13.1268 27.3045C13.2959 27.7128 13.6205 28.0373 14.0287 28.2065C14.1317 28.2491 14.2879 28.2884 14.6088 28.3103C14.9388 28.3328 15.365 28.3333 15.9999 28.3333C16.6348 28.3333 17.061 28.3328 17.3908 28.3103C17.7119 28.2884 17.8682 28.2491 17.971 28.2065C18.3794 28.0373 18.7039 27.7128 18.873 27.3045C18.9265 27.1756 18.9706 26.9748 18.9885 26.4987C19.0279 25.4421 19.5733 24.425 20.5411 23.866C21.5092 23.3071 22.663 23.3433 23.5976 23.8375C24.0188 24.06 24.215 24.1221 24.3531 24.1404C24.7914 24.198 25.2346 24.0793 25.5853 23.8101C25.6737 23.7424 25.7858 23.6267 25.9653 23.3597C26.1498 23.0852 26.3633 22.7164 26.6807 22.1665C26.9982 21.6167 27.2108 21.2473 27.3563 20.9504C27.4978 20.6615 27.5419 20.5065 27.5565 20.3961C27.6142 19.9579 27.4954 19.5147 27.2263 19.164C27.1414 19.0533 26.9896 18.9147 26.5862 18.6612C25.691 18.0987 25.0827 17.1177 25.0827 15.9999C25.0829 14.8822 25.6911 13.9013 26.5862 13.3388C26.9898 13.0853 27.1415 12.9466 27.2265 12.836C27.4955 12.4853 27.6143 12.0421 27.5566 11.6038C27.5421 11.4934 27.4979 11.3384 27.3565 11.0495C27.211 10.7525 26.9983 10.3832 26.6808 9.83333C26.3634 9.28347 26.1499 8.91469 25.9654 8.6402C25.7859 8.37319 25.6738 8.25752 25.5854 8.18973C25.2347 7.92066 24.7915 7.80189 24.3533 7.85958C24.2151 7.87778 24.019 7.93987 23.5978 8.16251C22.6631 8.65653 21.5094 8.69292 20.5414 8.13399C19.5733 7.57507 19.0279 6.5578 18.9885 5.5013C18.9706 5.02518 18.9265 4.82437 18.873 4.69555C18.7039 4.28717 18.3794 3.96268 17.971 3.79352C17.8682 3.75091 17.7119 3.71164 17.3908 3.68973C17.061 3.66723 16.6348 3.66669 15.9999 3.66669Z" stroke="#555555" stroke-width="4" mask="url(#path-1-inside-1_220_194)"/>
</svg>
